# xmcd
#
# Track frame offsets:
#	150
#	14549
#	29050
#	56007
#	67654
#	81494
#	96744
#	112277
#	131928
#	152154
#	166594
#	179797
#
# Disc length: 2691 seconds
# Revision: 0
# Processed by: cddbd v1.5.2PL0 Copyright (c) Steve Scherf et al.
# Submitted via: dBpowerAMP V12.0
#
DISCID=b30a810c
DTITLE=Dave Burgess - Hurry Slowly
DYEAR=2012
DGENRE=Blues
TTITLE0=Already Free
TTITLE1=You're Gonna Need Somebody
TTITLE2=Hurry Slowly
TTITLE3=Fonk In A
TTITLE4=Get Back
TTITLE5=This Is How Love's Got To Be
TTITLE6=Gonna Be Alright
TTITLE7=Can't Sleep At Night
TTITLE8=Lookin For The Same Things
TTITLE9=Old Too Soon (Smart Too Late)
TTITLE10=The Weatherman
TTITLE11=Long Way Down
EXTD=
EXTT0=
EXTT1=
EXTT2=
EXTT3=
EXTT4=
EXTT5=
EXTT6=
EXTT7=
EXTT8=
EXTT9=
EXTT10=
EXTT11=
PLAYORDER=
